<?xml version="1.0" encoding="iso-8859-1"?>
<!-- Generator: Adobe Illustrator 19.0.0, SVG Export Plug-In . SVG Version: 6.00 Build 0)  -->
<svg xmlns="http://www.w3.org/2000/svg" xmlns:xlink="http://www.w3.org/1999/xlink" version="1.1" id="Capa_1" x="0px" y="0px" viewBox="0 0 512 512" style="enable-background:new 0 0 512 512;" xml:space="preserve" width="512px" height="512px">
<g>
	<g>
		<path d="M313.783,132.923H198.217l-15.964,55.874c0.855,7.336,7.107,13.049,14.67,13.049c0.458,0,0.908-0.028,1.355-0.069    c0.153-0.014,0.303-0.035,0.454-0.054c0.293-0.036,0.585-0.081,0.873-0.134c0.172-0.031,0.345-0.064,0.515-0.102    c0.279-0.062,0.552-0.135,0.824-0.213c0.154-0.043,0.31-0.082,0.463-0.13c0.39-0.124,0.773-0.266,1.148-0.42    c0.156-0.064,0.307-0.139,0.46-0.209c0.245-0.111,0.488-0.227,0.727-0.351c0.155-0.081,0.307-0.166,0.46-0.252    c0.246-0.14,0.487-0.288,0.725-0.441c0.121-0.078,0.244-0.155,0.362-0.236c0.725-0.5,1.405-1.061,2.028-1.68    c0.047-0.047,0.093-0.096,0.139-0.145c0.269-0.274,0.528-0.557,0.774-0.852c0.054-0.064,0.107-0.129,0.16-0.195    c0.246-0.304,0.481-0.617,0.703-0.94c0.033-0.047,0.067-0.094,0.099-0.141c0.502-0.748,0.935-1.545,1.296-2.38    c0.042-0.099,0.08-0.202,0.121-0.302c0.692-1.708,1.082-3.57,1.082-5.525c0-8.157,6.613-14.769,14.769-14.769    s14.769,6.613,14.769,14.769c0,1.954,0.39,3.817,1.083,5.526c0.04,0.1,0.078,0.202,0.12,0.3c0.36,0.836,0.795,1.633,1.296,2.381    c0.033,0.048,0.067,0.094,0.099,0.141c0.223,0.323,0.457,0.636,0.703,0.94c0.053,0.065,0.106,0.13,0.16,0.195    c0.247,0.294,0.505,0.578,0.774,0.852c0.046,0.047,0.092,0.097,0.139,0.145c0.623,0.618,1.304,1.18,2.028,1.68    c0.119,0.082,0.241,0.159,0.362,0.236c0.237,0.154,0.479,0.3,0.725,0.441c0.152,0.086,0.304,0.171,0.46,0.252    c0.238,0.125,0.482,0.239,0.728,0.351c0.153,0.07,0.303,0.144,0.459,0.209c0.375,0.156,0.758,0.296,1.148,0.421    c0.153,0.048,0.308,0.086,0.463,0.13c0.272,0.077,0.545,0.151,0.824,0.213c0.17,0.038,0.343,0.071,0.515,0.102    c0.288,0.053,0.579,0.097,0.873,0.134c0.152,0.019,0.302,0.04,0.454,0.054c0.447,0.041,0.898,0.069,1.355,0.069    c0.457,0,0.908-0.028,1.355-0.069c0.153-0.014,0.303-0.035,0.454-0.054c0.293-0.036,0.585-0.081,0.873-0.134    c0.172-0.032,0.345-0.064,0.515-0.102c0.279-0.062,0.552-0.135,0.824-0.213c0.154-0.043,0.31-0.082,0.463-0.13    c0.39-0.124,0.773-0.266,1.148-0.42c0.156-0.064,0.307-0.139,0.46-0.209c0.245-0.111,0.488-0.226,0.727-0.351    c0.155-0.081,0.307-0.166,0.46-0.252c0.246-0.14,0.487-0.288,0.725-0.441c0.121-0.078,0.244-0.155,0.362-0.236    c0.725-0.5,1.405-1.061,2.028-1.68c0.047-0.047,0.093-0.096,0.139-0.145c0.269-0.274,0.528-0.557,0.774-0.852    c0.054-0.064,0.107-0.129,0.16-0.195c0.246-0.304,0.482-0.617,0.703-0.94c0.032-0.047,0.067-0.094,0.099-0.141    c0.502-0.748,0.935-1.545,1.296-2.38c0.042-0.099,0.08-0.202,0.121-0.302c0.692-1.708,1.082-3.57,1.082-5.525    c0-8.157,6.613-14.769,14.769-14.769s14.769,6.613,14.769,14.769c0,1.954,0.39,3.817,1.083,5.526c0.04,0.1,0.078,0.202,0.12,0.3    c0.36,0.836,0.795,1.633,1.296,2.381c0.032,0.048,0.067,0.094,0.099,0.141c0.223,0.323,0.457,0.636,0.703,0.94    c0.053,0.065,0.106,0.13,0.161,0.195c0.247,0.294,0.505,0.578,0.774,0.852c0.047,0.047,0.092,0.097,0.139,0.145    c0.623,0.618,1.304,1.18,2.029,1.68c0.119,0.082,0.241,0.159,0.362,0.236c0.237,0.154,0.479,0.3,0.725,0.441    c0.152,0.086,0.304,0.171,0.46,0.252c0.238,0.125,0.482,0.239,0.728,0.351c0.153,0.07,0.303,0.144,0.459,0.209    c0.375,0.156,0.758,0.296,1.148,0.421c0.153,0.048,0.308,0.086,0.463,0.13c0.272,0.077,0.545,0.151,0.824,0.213    c0.17,0.038,0.343,0.071,0.515,0.102c0.288,0.053,0.579,0.097,0.872,0.134c0.152,0.019,0.302,0.04,0.454,0.054    c0.447,0.041,0.898,0.069,1.355,0.069c7.563,0,13.815-5.713,14.669-13.049L313.783,132.923z" fill="#D80027"/>
	</g>
</g>
<g>
	<g>
		<path d="M298.296,228.073c-0.013-0.006-0.025-0.011-0.036-0.016c-0.639-0.263-1.269-0.541-1.892-0.832    c-0.048-0.023-0.095-0.045-0.144-0.068c-0.58-0.274-1.153-0.56-1.719-0.858c-0.086-0.045-0.171-0.09-0.256-0.135    c-0.517-0.277-1.027-0.563-1.532-0.86c-0.126-0.074-0.253-0.147-0.379-0.223c-0.449-0.27-0.891-0.548-1.329-0.833    c-0.169-0.11-0.341-0.218-0.508-0.33c-0.372-0.249-0.736-0.507-1.101-0.767c-0.221-0.158-0.446-0.312-0.665-0.475    c-0.266-0.197-0.525-0.403-0.787-0.607c-0.302-0.234-0.608-0.466-0.904-0.708c-0.022-0.018-0.043-0.037-0.065-0.055    c-0.487-0.4-0.97-0.805-1.44-1.226c-1.211,1.083-2.487,2.089-3.809,3.032c-0.304,0.218-0.607,0.44-0.917,0.65    c-0.005,0.003-0.009,0.006-0.014,0.009c-6.543,4.436-14.328,7.17-22.716,7.561c-0.692,0.033-1.386,0.049-2.084,0.049    c-0.698,0-1.392-0.017-2.084-0.049c-8.388-0.39-16.173-3.125-22.716-7.561c-0.005-0.003-0.009-0.006-0.014-0.009    c-0.31-0.211-0.611-0.432-0.917-0.65c-1.32-0.943-2.596-1.95-3.808-3.032c-0.471,0.42-0.953,0.826-1.44,1.226    c-0.022,0.019-0.043,0.037-0.065,0.055c-0.297,0.243-0.603,0.475-0.906,0.709c-0.261,0.203-0.519,0.408-0.784,0.605    c-0.22,0.162-0.444,0.318-0.667,0.477c-0.363,0.259-0.728,0.517-1.099,0.765c-0.168,0.112-0.339,0.22-0.508,0.33    c-0.438,0.285-0.881,0.564-1.329,0.833c-0.126,0.075-0.252,0.149-0.379,0.223c-0.504,0.296-1.015,0.583-1.532,0.86    c-0.086,0.045-0.171,0.091-0.256,0.135c-0.566,0.297-1.138,0.584-1.718,0.858c-0.048,0.023-0.096,0.046-0.145,0.069    c-0.623,0.291-1.253,0.569-1.891,0.832c-0.012,0.005-0.025,0.01-0.036,0.015c-0.663,0.273-1.333,0.53-2.012,0.77v51.773h88.615    v-51.772C299.629,228.603,298.959,228.345,298.296,228.073z" fill="#D80027"/>
	</g>
</g>
<g>
	<g>
		<path d="M256,0C148.773,0,61.538,87.235,61.538,194.462c0,57.897,36.036,139.279,69.759,196.134    C152.949,427.099,208.441,512,256,512s103.051-84.901,124.703-121.404c33.723-56.856,69.759-138.237,69.759-196.134    C450.462,87.235,363.227,0,256,0z M329.846,228.844v66.54c0,8.156-6.613,14.769-14.769,14.769H196.923    c-8.157,0-14.769-6.613-14.769-14.769v-66.54c-17.19-6.097-29.539-22.513-29.539-41.767c0-1.373,0.191-2.737,0.568-4.058    l19.692-68.923c1.812-6.341,7.607-10.712,14.201-10.712h137.846c6.594,0,12.389,4.371,14.201,10.712l19.692,68.923    c0.377,1.32,0.568,2.685,0.568,4.058C359.385,206.331,347.037,222.748,329.846,228.844z" fill="#D80027"/>
	</g>
</g>
<g>
</g>
<g>
</g>
<g>
</g>
<g>
</g>
<g>
</g>
<g>
</g>
<g>
</g>
<g>
</g>
<g>
</g>
<g>
</g>
<g>
</g>
<g>
</g>
<g>
</g>
<g>
</g>
<g>
</g>
</svg>
